<?xml version="1.0" standalone="no"?>
<!DOCTYPE svg PUBLIC "-//W3C//DTD SVG 20010904//EN"
 "http://www.w3.org/TR/2001/REC-SVG-20010904/DTD/svg10.dtd">
<svg version="1.0" xmlns="http://www.w3.org/2000/svg"
 width="450.000000pt" height="450.000000pt" viewBox="0 0 450.000000 450.000000"
 preserveAspectRatio="xMidYMid meet">
<metadata>
Created by potrace 1.16, written by Peter Selinger 2001-2019
</metadata>
<g transform="translate(0.000000,450.000000) scale(0.100000,-0.100000)"
fill="#000000" stroke="none">
<path d="M0 2250 l0 -2250 2250 0 2250 0 0 2250 0 2250 -2250 0 -2250 0 0
-2250z m1600 1170 l0 -40 40 0 40 0 0 -80 0 -80 80 0 80 0 0 -40 0 -40 750 0
750 0 0 -29 c0 -16 6 -34 14 -40 8 -6 20 -25 27 -42 10 -25 14 -28 21 -15 11
20 41 20 80 0 28 -14 30 -19 24 -53 -7 -46 1 -57 25 -35 17 16 19 15 25 -1 5
-13 -1 -24 -19 -37 -35 -25 -34 -52 2 -89 34 -33 58 -36 108 -13 25 12 31 19
21 25 -8 5 7 9 40 9 l52 0 0 -40 0 -40 40 0 40 0 0 -80 0 -80 40 0 40 0 0
-120 0 -120 280 0 280 0 0 -80 0 -80 -280 0 -280 0 0 -160 0 -160 -40 0 -40 0
0 -200 0 -200 40 0 40 0 0 -40 0 -40 80 0 80 0 0 -40 0 -40 40 0 40 0 0 -40 0
-40 160 0 160 0 0 -40 0 -40 -240 0 -240 0 0 -40 0 -40 -760 0 -760 0 0 40 0
40 -280 0 -280 0 0 -40 0 -40 -480 0 -480 0 0 159 c0 91 -4 162 -10 166 -5 3
-7 12 -3 20 4 12 26 15 98 15 l93 0 32 56 c17 31 30 58 27 60 -2 2 -128 5
-280 6 l-277 3 0 38 c0 37 0 37 -40 37 l-40 0 0 40 0 40 40 0 40 0 0 40 0 40
-40 0 -40 0 0 40 0 40 -40 0 -40 0 0 160 0 160 -40 0 -40 0 0 120 0 120 80 0
80 0 0 40 0 40 -40 0 -40 0 0 40 0 40 -40 0 -40 0 0 80 0 80 40 0 40 0 0 40 0
40 120 0 120 0 0 40 0 40 -40 0 -40 0 0 120 0 120 160 0 160 0 0 -40 0 -40 40
0 40 0 0 120 0 120 120 0 120 0 0 -40 0 -40 40 0 40 0 0 120 0 120 120 0 120
0 0 -40z"/>
<path d="M1538 3033 c6 -2 18 -2 25 0 6 3 1 5 -13 5 -14 0 -19 -2 -12 -5z"/>
<path d="M3386 2828 c-20 -27 -20 -38 -3 -38 11 0 37 39 37 55 0 13 -21 2 -34
-17z"/>
<path d="M3606 2438 c-3 -13 -5 -41 -5 -63 1 -33 3 -29 9 20 8 63 7 81 -4 43z"/>
<path d="M3352 2205 c-41 -122 -64 -253 -60 -356 l3 -83 40 -9 c58 -13 240 -2
311 18 l61 17 6 111 c4 62 7 133 7 159 0 47 -34 158 -49 158 -9 0 -53 -98 -52
-119 0 -9 1 -25 3 -36 5 -32 -29 -30 -46 2 -12 25 -13 39 -1 103 7 41 16 88
20 103 l7 28 -53 -8 c-67 -10 -107 -10 -139 -1 -25 7 -27 4 -58 -87z"/>
<path d="M1670 1540 c1 -3 16 -30 34 -60 l32 -55 701 -3 c789 -2 733 -8 733
74 0 41 -2 44 -27 46 -57 5 -1473 3 -1473 -2z"/>
<path d="M3600 1500 l0 -40 40 0 40 0 0 40 0 40 -40 0 -40 0 0 -40z"/>
<path d="M3876 1355 c16 -13 16 -14 2 -9 -14 5 -18 1 -18 -15 0 -12 -7 -38
-15 -58 -13 -30 -17 -33 -30 -23 -12 10 -15 10 -15 -1 0 -7 -12 -26 -27 -42
l-28 -30 27 7 c48 11 78 25 82 38 3 7 7 27 11 43 l7 30 15 -28 c19 -38 25 -30
12 17 -6 21 -8 44 -6 51 6 14 -11 35 -27 35 -5 0 -1 -7 10 -15z"/>
<path d="M3326 1259 c-25 -27 -41 -37 -46 -30 -5 9 -14 9 -31 2 -13 -5 -33
-12 -44 -16 l-20 -7 20 -8 c11 -5 36 -9 56 -9 29 -1 40 5 53 24 22 33 36 32
37 -2 1 -27 1 -27 10 6 6 18 9 44 7 57 -3 23 -5 23 -42 -17z"/>
</g>
</svg>
