<?xml version="1.0" encoding="utf-8"?>
<!-- Generator: Adobe Illustrator 24.2.3, SVG Export Plug-In . SVG Version: 6.00 Build 0)  -->
<svg version="1.1" id="Layer_1" xmlns="http://www.w3.org/2000/svg" xmlns:xlink="http://www.w3.org/1999/xlink" x="0px" y="0px"
	 viewBox="0 0 200 67" style="enable-background:new 0 0 200 67;" xml:space="preserve">
<style type="text/css">
	.st0{fill:#28AE60;}
	.st1{fill:#FFFFFF;}
	.st2{font-family:'Impact';}
	.st3{font-size:43.0104px;}
	.st4{font-family:'Calibri-Bold';}
	.st5{font-size:6px;}
</style>
<g>
	<g>
		<path class="st0" d="M14.94,19.56v42.15c0,0.08-0.07,0.15-0.15,0.15h0c-7.72,0-13.97-6.26-13.97-13.97v-14.5
			c0-7.72,6.26-13.97,13.97-13.97h0C14.87,19.41,14.94,19.48,14.94,19.56z"/>
	</g>
	<path class="st0" d="M57.5,33.46c0,5.21-1.36,10.05-3.78,14.2c-2.49,4.31-6.12,7.86-10.42,10.35c-4.15,2.42-8.99,3.78-14.13,3.78
		v0.08H15.12c-0.08,0-0.15-0.07-0.15-0.15v0c0-7.72,6.26-13.97,13.97-13.97h0.23c0.15,0,0.23,0,0.38-0.08
		c7.63-0.15,13.75-6.42,13.75-14.05v0c0-7.81-6.39-14.2-14.2-14.2H1c-0.08,0-0.15-0.07-0.15-0.15v0c0-7.76,6.29-14.05,14.05-14.05
		h13.52c0.23-0.08,0.53-0.08,0.76-0.08h1.13c4.76,0.23,9.14,1.59,12.99,3.78c4.31,2.49,7.93,6.12,10.42,10.42
		C56.14,23.49,57.5,28.33,57.5,33.46z"/>
</g>
<text transform="matrix(0.759 0 0 1 59.9033 52.8242)" class="st1 st2 st3">DevRohan</text>
<g>
	<path class="st0" d="M187.67,15.91h-23.9c-2.89,0-5.24-2.34-5.24-5.24v0c0-2.89,2.34-5.24,5.24-5.24h23.9
		c2.89,0,5.24,2.34,5.24,5.24v0C192.9,13.57,190.56,15.91,187.67,15.91z"/>
</g>
<text transform="matrix(1.3735 0 0 1 160.6699 12.5617)" class="st1 st4 st5">Portfolio</text>
</svg>
